<svg id="affc39e2-7da3-4bf1-9ead-1f378b7c269e" data-name="Layer 1" xmlns="http://www.w3.org/2000/svg" width="1088" height="687.96235" viewBox="0 0 1088 687.96235"><title>into the night</title><path d="M1017.81006,560.46116c-5.27,45.15-16.22,81.4-31.25,110.31-20.00006,38.52-54.21008,54.04-84.77008,70.28a193.27683,193.27683,0,0,1-27.46,11.94c-55.61,19.3-117.85,14.18-166.74,3.99a657.29581,657.29581,0,0,0-104.09-13.16q-14.97-.67493-29.97-.67c-15.42.02-293.07,5.29-360.67-131.57-16.69-33.76-28.13-75-32.24-125.27-11.63-142.12,52.29-235.46,134.74-296.47,155.97-115.41,369.76-110.57,523.43,7.88C941.15,276.62119,1036.99,396.03116,1017.81006,560.46116Z" transform="translate(-56 -106.01882)" fill="#3f3d56"/><path d="M986.56006,670.77115c-20.00006,38.52-47.21008,64.04-77.77008,80.28a193.27683,193.27683,0,0,1-27.46,11.94c-55.61,19.3-117.85,14.18-166.74,3.99a657.29581,657.29581,0,0,0-104.09-13.16q-14.97-.67493-29.97-.67-23.13006.03-46.25,1.72c-100.17,7.36-253.82-6.43-321.42-143.29l169.14-327.6,62.95,161.62,20.09,51.59,55.37-75.98,28.59-39.23,130.2,149.27L716,449.98118l254.78,207.92,14.21,11.59Z" transform="translate(-56 -106.01882)" fill="#f2f2f2"/><polygon points="302 282.962 328 225.962 364 308.962 333 248.962 302 282.962" opacity="0.1"/><path d="M610.5,753.82114q-14.97-.67493-29.97-.67l-115.49-255.96Z" transform="translate(-56 -106.01882)" opacity="0.1"/><polygon points="464.411 315.191 493 292.962 623 442.962 491 314.962 464.411 315.191" opacity="0.1"/><path d="M908.79,751.05118a193.27683,193.27683,0,0,1-27.46,11.94L679.2,531.25113Z" transform="translate(-56 -106.01882)" opacity="0.1"/><circle cx="482" cy="101.96235" r="3" fill="#f2f2f2"/><circle cx="399" cy="204.96235" r="3" fill="#f2f2f2"/><circle cx="602" cy="222.96235" r="2" fill="#f2f2f2"/><circle cx="182" cy="267.96235" r="2" fill="#f2f2f2"/><circle cx="614" cy="98.96235" r="2" fill="#f2f2f2"/><circle cx="738" cy="194.96235" r="2" fill="#f2f2f2"/><circle cx="860" cy="346.96235" r="2" fill="#f2f2f2"/><polygon points="306 121.222 303.24 121.222 303.24 118.462 301.76 118.462 301.76 121.222 299 121.222 299 122.703 301.76 122.703 301.76 125.462 303.24 125.462 303.24 122.703 306 122.703 306 121.222" fill="#f2f2f2"/><polygon points="848 424.222 845.24 424.222 845.24 421.462 843.76 421.462 843.76 424.222 841 424.222 841 425.703 843.76 425.703 843.76 428.462 845.24 428.462 845.24 425.703 848 425.703 848 424.222" fill="#f2f2f2"/><path d="M1144,719.98118c0,16.56854-243.5571,74-544,74s-544-57.43146-544-74,243.5571,14,544,14S1144,703.41263,1144,719.98118Z" transform="translate(-56 -106.01882)" fill="#3f3d56"/><path d="M1144,719.98118c0,16.56854-243.5571,74-544,74s-544-57.43146-544-74,243.5571,14,544,14S1144,703.41263,1144,719.98118Z" transform="translate(-56 -106.01882)" opacity="0.1"/><ellipse cx="544" cy="613.96235" rx="544" ry="30" fill="#3f3d56"/><path d="M624,677.98118c0,33.13708-14.7746,24-33,24s-33,9.13708-33-24,33-96,33-96S624,644.84409,624,677.98118Z" transform="translate(-56 -106.01882)" fill="#ff6584"/><path d="M606,690.65966c0,15.06231-6.71573,10.90909-15,10.90909s-15,4.15322-15-10.90909,15-43.63637,15-43.63637S606,675.59734,606,690.65966Z" transform="translate(-56 -106.01882)" opacity="0.1"/><rect x="489" y="604.96235" width="92" height="18" rx="8.99999" fill="#2f2e41"/><rect x="489" y="586.96235" width="92" height="18" rx="8.99999" fill="#2f2e41"/><path d="M193,596.54681c0,55.34325,34.71944,100.12629,77.626,100.12629" transform="translate(-56 -106.01882)" fill="#3f3d56"/><path d="M270.626,696.6731c0-55.96507,38.74489-101.2513,86.62612-101.2513" transform="translate(-56 -106.01882)" fill="#f33535"/><path d="M221.12536,601.56377c0,52.5702,22.13994,95.10933,49.50064,95.10933" transform="translate(-56 -106.01882)" fill="#f33535"/><path d="M270.626,696.6731c0-71.51093,44.78305-129.37667,100.12629-129.37667" transform="translate(-56 -106.01882)" fill="#3f3d56"/><path d="M254.29549,697.379s11.00865-.33906,14.32637-2.70157,16.93407-5.18348,17.75712-1.39453,16.54395,18.84451,4.11524,18.94476-28.87878-1.936-32.19012-3.953S254.29549,697.379,254.29549,697.379Z" transform="translate(-56 -106.01882)" fill="#a8a8a8"/><path d="M290.716,710.90872c-12.42871.10028-28.87878-1.936-32.19013-3.953-2.52176-1.53611-3.52666-7.048-3.86289-9.591-.23285.01-.36751.01433-.36751.01433s.69726,8.87855,4.00861,10.89563,19.76141,4.0533,32.19012,3.953c3.58767-.02893,4.82692-1.30537,4.75887-3.1959C294.75469,710.174,293.38638,710.88719,290.716,710.90872Z" transform="translate(-56 -106.01882)" opacity="0.2"/><path d="M777.42886,633.08054c0,38.029,23.85743,68.80166,53.34062,68.80166" transform="translate(-56 -106.01882)" fill="#3f3d56"/><path d="M830.76948,701.8822c0-38.45634,26.6235-69.57471,59.525-69.57471" transform="translate(-56 -106.01882)" fill="#f33535"/><path d="M796.75517,636.52793c0,36.12355,15.21343,65.35427,34.01431,65.35427" transform="translate(-56 -106.01882)" fill="#f33535"/><path d="M830.76948,701.8822c0-49.13865,30.77261-88.901,68.80166-88.901" transform="translate(-56 -106.01882)" fill="#3f3d56"/><path d="M819.548,702.36726s7.56457-.233,9.84434-1.85638,11.63623-3.56182,12.20179-.95825,11.36815,12.949,2.82778,13.01787-19.844-1.3303-22.11941-2.71632S819.548,702.36726,819.548,702.36726Z" transform="translate(-56 -106.01882)" fill="#a8a8a8"/><path d="M844.57431,711.66419c-8.54037.0689-19.844-1.33029-22.1194-2.71632-1.73283-1.05554-2.42334-4.843-2.65438-6.59046-.16.00688-.25254.00984-.25254.00984s.47912,6.10089,2.75451,7.48692,13.579,2.78522,22.1194,2.71632c2.46527-.01989,3.31682-.897,3.27006-2.19606C847.34948,711.15929,846.40924,711.64939,844.57431,711.66419Z" transform="translate(-56 -106.01882)" opacity="0.2"/><path d="M949.81294,724.71828s11.35954-1.729,14.50011-4.59116,16.89034-7.48811,18.217-3.6668,19.49358,17.44717,6.63337,19.10656-30.15288,1.6093-33.835-.0654S949.81294,724.71828,949.81294,724.71828Z" transform="translate(-56 -106.01882)" fill="#a8a8a8"/><path d="M989.22809,734.17305c-12.86022,1.65942-30.15287,1.60931-33.835-.06539-2.80413-1.27537-4.53479-6.85846-5.20131-9.45022-.23992.03951-.37885.06083-.37885.06083s1.8334,9.1085,5.51551,10.7832,20.97476,1.72481,33.835.0654c3.71223-.479,4.836-1.95615,4.52891-3.9057C993.31909,732.90656,991.99116,733.81653,989.22809,734.17305Z" transform="translate(-56 -106.01882)" opacity="0.2"/><path d="M670.25974,723.89609s9.587-1.4592,12.23747-3.87474,14.25472-6.31965,15.37438-3.09463,16.45175,14.72467,5.59828,16.12513-25.44774,1.35817-28.55528-.0552S670.25974,723.89609,670.25974,723.89609Z" transform="translate(-56 -106.01882)" fill="#a8a8a8"/><path d="M703.52443,731.87551c-10.85347,1.40048-25.44773,1.35819-28.55528-.05519-2.36655-1.07636-3.82716-5.78824-4.38968-7.97558-.20248.03335-.31973.05134-.31973.05134s1.54731,7.68718,4.65486,9.10056,17.7018,1.45567,28.55527.05519c3.133-.40425,4.08138-1.6509,3.82221-3.29624C706.97706,730.80665,705.85634,731.57462,703.52443,731.87551Z" transform="translate(-56 -106.01882)" opacity="0.2"/><path d="M178.389,719.1091s7.46341-1.136,9.52683-3.01647,11.09725-4.91982,11.9689-2.40915,12.80763,11.4631,4.35824,12.55335-19.811,1.05733-22.23018-.043S178.389,719.1091,178.389,719.1091Z" transform="translate(-56 -106.01882)" fill="#a8a8a8"/><path d="M204.28545,725.32105c-8.44939,1.09027-19.811,1.05735-22.23018-.043-1.84236-.83794-2.97944-4.50613-3.41735-6.209-.15764.026-.24892.04-.24892.04s1.20458,5.98444,3.62379,7.08475,13.78079,1.13323,22.23018.043c2.439-.31471,3.17734-1.28522,2.97558-2.56611C206.97331,724.489,206.10083,725.08682,204.28545,725.32105Z" transform="translate(-56 -106.01882)" opacity="0.2"/><path d="M439.69605,707.33735c0,30.22037-42.12361,20.87293-93.69971,20.87293s-93.07389,9.34744-93.07389-20.87293,42.11785-36.793,93.694-36.793S439.69605,677.117,439.69605,707.33735Z" transform="translate(-56 -106.01882)" opacity="0.1"/><path d="M439.69605,699.89657c0,30.22038-42.12361,20.87294-93.69971,20.87294s-93.07389,9.34744-93.07389-20.87294,42.11785-36.793,93.694-36.793S439.69605,669.6762,439.69605,699.89657Z" transform="translate(-56 -106.01882)" fill="#3f3d56"/><path d="M447.72627,561.44a45.27142,45.27142,0,0,0-7.05668,4.47173,15.17315,15.17315,0,0,0-4.90656,6.64379,61.29573,61.29573,0,0,1-3.03846-8.98048,147.82406,147.82406,0,0,0-6.20794-16.16523,21.48254,21.48254,0,0,0,9.75767-7.4824c4.799,4.77829,9.73379,9.76186,12.12158,16.09916.41144,1.092,1.60852,2.25583,1.88633,3.23361C450.6752,560.64334,448.77489,560.86278,447.72627,561.44Z" transform="translate(-56 -106.01882)" fill="#ffbfc5"/><path d="M492.89162,677.9263a44.36717,44.36717,0,0,1,14.41815,7.71471,1.50494,1.50494,0,0,1,.65513.88718c.10864.83052-.99981,1.16932-1.80471,1.40108-2.36667.68144-3.87887,2.9049-5.62177,4.64495s-4.54333,3.1053-6.57656,1.71553a6.36473,6.36473,0,0,1-1.381-1.45455l-8.5899-11.212a52.07161,52.07161,0,0,1,9.14452-4.01431" transform="translate(-56 -106.01882)" fill="#f1f1f1"/><path d="M508.33278,680.25882c1.13719,1.16044,1.63111,2.82925,2.74686,4.01032a10.0281,10.0281,0,0,0,2.54157,1.76362l6.572,3.61723a18.99513,18.99513,0,0,0,3.17556,1.50035,29.111,29.111,0,0,0,3.77152.78743,27.32493,27.32493,0,0,1,5.31841,1.56918c1.28853.5276,2.72547,1.43813,2.71931,2.83048a3.0761,3.0761,0,0,1-.78843,1.82908c-2.59134,3.26384-7.17786,3.9874-11.32222,4.42562-8.9715.94863-18.1525,1.65957-26.92269-.455a11.48352,11.48352,0,0,1-4.73172-2.048c-2.64639-2.1928-3.17337-6.18757-2.18511-9.47925a5.1252,5.1252,0,0,1,2.08978-3.1076c1.389-.79629,3.12-.42644,4.71626-.54968a14.847,14.847,0,0,0,4.86261-1.54868c1.00271-.45237,2.15729-1.03522,2.372-2.22838.1991-1.10648-1.10061-2.21462-.82707-3.20283C503.04777,677.78187,507.285,679.18959,508.33278,680.25882Z" transform="translate(-56 -106.01882)" fill="#575a89"/><path d="M508.33278,680.25882c1.13719,1.16044,1.63111,2.82925,2.74686,4.01032a10.0281,10.0281,0,0,0,2.54157,1.76362l6.572,3.61723a18.99513,18.99513,0,0,0,3.17556,1.50035,29.111,29.111,0,0,0,3.77152.78743,27.32493,27.32493,0,0,1,5.31841,1.56918c1.28853.5276,2.72547,1.43813,2.71931,2.83048a3.0761,3.0761,0,0,1-.78843,1.82908c-2.59134,3.26384-7.17786,3.9874-11.32222,4.42562-8.9715.94863-18.1525,1.65957-26.92269-.455a11.48352,11.48352,0,0,1-4.73172-2.048c-2.64639-2.1928-3.17337-6.18757-2.18511-9.47925a5.1252,5.1252,0,0,1,2.08978-3.1076c1.389-.79629,3.12-.42644,4.71626-.54968a14.847,14.847,0,0,0,4.86261-1.54868c1.00271-.45237,2.15729-1.03522,2.372-2.22838.1991-1.10648-1.10061-2.21462-.82707-3.20283C503.04777,677.78187,507.285,679.18959,508.33278,680.25882Z" transform="translate(-56 -106.01882)" opacity="0.1"/><path d="M523.581,716.15665q1.3813.9093,2.76018,1.8223a4.94177,4.94177,0,0,1,2.0064,1.97866c.59846,1.407-.21111,2.9986-1.11147,4.23441a24.3528,24.3528,0,0,1-10.64044,8.24591,15.94947,15.94947,0,0,1-4.62132,1.15244,1.96706,1.96706,0,0,1-1.07422-.1355c-.84135-.444-.72067-1.64757-.73079-2.59882-.02936-2.76149-2.11479-5.00377-3.989-7.03205s-3.785-4.52562-3.35578-7.25371a9.01618,9.01618,0,0,1,2.379-4.2445,17.64413,17.64413,0,0,1,3.61768-3.4128c1.94966-1.27577,2.63741-.589,4.4723.58029Q518.46184,712.7868,523.581,716.15665Z" transform="translate(-56 -106.01882)" fill="#f1f1f1"/><path d="M514.60879,729.60918a4.93,4.93,0,0,0,4.34908-.98069,11.07122,11.07122,0,0,0,2.82363-3.63,30.47237,30.47237,0,0,0,1.7483-3.84939c.57727-1.54832,1.11255-3.26017,2.47225-4.19917,1.64851-1.13847,3.97125-.69279,5.6467.40565a29.62444,29.62444,0,0,1,4.33,4.14749,29.2639,29.2639,0,0,0,12.29537,6.84115,133.69552,133.69552,0,0,0,13.89058,2.96946,7.90506,7.90506,0,0,1,2.67306.8605c1.88079,1.14743,2.50827,3.70894,1.98489,5.849a13.025,13.025,0,0,1-3.46125,5.54351,13.85658,13.85658,0,0,1-4.60026,3.56169,14.61173,14.61173,0,0,1-4.661.88258,79.20409,79.20409,0,0,1-22.97946-1.79936,63.02766,63.02766,0,0,0-8.42428-1.68187c-1.73323-.15271-3.47843-.10414-5.21438-.22214a27.29851,27.29851,0,0,1-9.944-2.62335,3.52009,3.52009,0,0,1-1.81342-1.50448,3.74578,3.74578,0,0,1-.13438-1.9922l1.15133-10.08053c.10024-.87761.39221-1.96813,1.26486-2.105.8304-.13024,1.43385.71991,1.95621,1.37846a7.12157,7.12157,0,0,0,8.52978,1.86542" transform="translate(-56 -106.01882)" fill="#575a89"/><path d="M447.86626,602.50439c5.05781-.57011,10.92369-.66529,14.34376,3.10426,2.09739,2.31171,2.734,5.54974,3.45971,8.58559a55.81793,55.81793,0,0,0,5.48,14.59583c1.60886,2.84039,3.559,5.50619,4.79332,8.52821,1.26492,3.09677,1.73049,6.44936,2.46989,9.71177a58.64618,58.64618,0,0,0,20.53645,32.665c-1.82442,4.96257-7.10162,7.79719-12.23467,9.065a5.26347,5.26347,0,0,1-6.28647-1.713,84.49191,84.49191,0,0,1-6.69758-8.20458c-7.39926-9.88033-14.9111-19.96917-18.94132-31.63652-1.41417-4.094-2.82862-8.87314-6.80772-10.584-2.26939-.97575-4.86438-.67126-7.29989-.25836a99.29656,99.29656,0,0,0-16.01318,4.11155c-5.55921,1.93356-11.92439,4.31356-17.01245,1.35466-3.04465-1.77058-4.85677-5.171-5.52531-8.629a37.244,37.244,0,0,1-.014-10.52823,10.833,10.833,0,0,1,1.11092-4.55215,9.84681,9.84681,0,0,1,2.6592-2.69123,54.93453,54.93453,0,0,1,14.97886-8.06954c5.141-1.81218,10.66656-2.4266,16.02976-3.32211Q442.35918,603.12526,447.86626,602.50439Z" transform="translate(-56 -106.01882)" fill="#575a89"/><path d="M447.86626,602.50439c5.05781-.57011,10.92369-.66529,14.34376,3.10426,2.09739,2.31171,2.734,5.54974,3.45971,8.58559a55.81793,55.81793,0,0,0,5.48,14.59583c1.60886,2.84039,3.559,5.50619,4.79332,8.52821,1.26492,3.09677,1.73049,6.44936,2.46989,9.71177a58.64618,58.64618,0,0,0,20.53645,32.665c-1.82442,4.96257-7.10162,7.79719-12.23467,9.065a5.26347,5.26347,0,0,1-6.28647-1.713,84.49191,84.49191,0,0,1-6.69758-8.20458c-7.39926-9.88033-14.9111-19.96917-18.94132-31.63652-1.41417-4.094-2.82862-8.87314-6.80772-10.584-2.26939-.97575-4.86438-.67126-7.29989-.25836a99.29656,99.29656,0,0,0-16.01318,4.11155c-5.55921,1.93356-11.92439,4.31356-17.01245,1.35466-3.04465-1.77058-4.85677-5.171-5.52531-8.629a37.244,37.244,0,0,1-.014-10.52823,10.833,10.833,0,0,1,1.11092-4.55215,9.84681,9.84681,0,0,1,2.6592-2.69123,54.93453,54.93453,0,0,1,14.97886-8.06954c5.141-1.81218,10.66656-2.4266,16.02976-3.32211Q442.35918,603.12526,447.86626,602.50439Z" transform="translate(-56 -106.01882)" opacity="0.1"/><path d="M476.8202,638.977a26.18141,26.18141,0,0,1,6.39142,4.54,23.09865,23.09865,0,0,1,4.36252,7.82655,9.48222,9.48222,0,0,1,.75534,3.01693,3.44643,3.44643,0,0,1-1.11909,2.79939,4.99463,4.99463,0,0,1-3.15632.7712q-2.2.01771-4.39775-.11462a7.40834,7.40834,0,0,1-2.60419-.49356,7.27673,7.27673,0,0,1-2.02928-1.536,28.45867,28.45867,0,0,1-6.22736-8.409c-1.06174-2.34115-2.80971-7.73707-1.13844-10.17341C469.379,634.69437,474.99992,637.944,476.8202,638.977Z" transform="translate(-56 -106.01882)" fill="#ffbfc5"/><path d="M405.90728,638.14154c7.48036,2.39611,15.44271,2.67,23.26342,3.40054a194.27489,194.27489,0,0,1,38.78253,7.66611,20.62661,20.62661,0,0,1,7.3119,3.40465,21.75052,21.75052,0,0,1,4.24181,5.39582,91.631,91.631,0,0,1,5.57279,9.745c1.42076,3.036,2.50375,6.21787,3.82523,9.29833a65.36843,65.36843,0,0,0,20.39026,26.1166c1.63124,1.24077,3.4478,2.5914,3.86743,4.59748a6.40775,6.40775,0,0,1-.60422,3.77771c-1.9285,4.49136-5.93183,7.75853-10.1316,10.25921-1.80623,1.07549-3.7931,2.16652-4.6813,4.07184-6.3842-2.63576-11.12949-8.25478-15.07994-13.92039s-7.45448-11.75365-12.51707-16.45209c-2.23022-2.0698-4.76418-3.87219-6.5182-6.35842-2.6771-3.79462-3.40119-8.98612-7.00525-11.91473-3.62984-2.94956-8.837-2.548-13.49188-2.09167a331.08881,331.08881,0,0,1-71.65339-.77534c-4.945-.593-10.02555-1.34816-14.30916-3.889s-7.619-7.30776-7.01171-12.25105c.56849-4.62719,4.42235-8.29578,8.71805-10.10716s9.04382-2.13627,13.67654-2.65777A144.21613,144.21613,0,0,0,405.90728,638.14154Z" transform="translate(-56 -106.01882)" fill="#575a89"/><path d="M337.51128,647.74938c.58718-3.92337,2.11081-7.63934,3.067-11.48946a70.37568,70.37568,0,0,1,1.81748-7.17709c.0242-.06647.05151-.13143.07639-.19756a1.66739,1.66739,0,0,0,1.22519-.70075,2.05828,2.05828,0,0,0,.10365-1.07821,7.28009,7.28009,0,0,1,.0341-1.15137,82.1316,82.1316,0,0,1,5.12062-7.59057c3.239-4.58909,6.04469-9.4664,8.84515-14.33558,2.29584-3.99174,4.59554-7.99111,6.49613-12.18545,1.42521-3.14525,2.62352-6.395,4.19916-9.46773,5.60814-10.93693,15.68837-18.99184,26.53055-24.78105,10.39983-5.553,21.64335-9.2964,32.57823-13.71138a6.51773,6.51773,0,0,1,.76294.89987c5.908,8.07546,6.545,18.68863,8.9763,28.39461.98162,3.91883,2.294,7.82438,2.29148,11.8643-.00367,5.9632-2.85353,11.51114-5.68615,16.75862a91.306,91.306,0,0,1-8.92983,14.25162c-1.67326,2.07072-3.5158,3.99955-5.19833,6.06268-6.89286,8.45189-10.873,18.84423-14.74228,29.041-2.24034,5.904-5.90153,11.1404-8.36423,16.95512-.94635,2.23449-1.49259,4.64366-2.68126,6.75923s-3.25717,3.97675-5.68379,3.98754a8.31926,8.31926,0,0,1-2.09706-.32849c-8.784-2.25985-16.14073-8.07149-23.44061-13.45456-1.30277-.96072-2.6135-1.91285-3.98054-2.77962-1.38023-.87514-2.81458-1.66119-4.24782-2.44655q-1.629-.89272-3.2581-1.7854c-3.55936-1.95043-7.12362-3.90334-10.832-5.55286a19.50789,19.50789,0,0,1-3.19963-1.64259A19.5425,19.5425,0,0,1,337.51128,647.74938Z" transform="translate(-56 -106.01882)" fill="#f33535"/><circle cx="396.35929" cy="434.51122" r="20.23957" fill="#ffbfc5"/><path d="M465.97383,531.06013a4.79614,4.79614,0,0,0,4.98443,2.34321,6.98465,6.98465,0,0,0,4.65153-3.31793,13.20258,13.20258,0,0,0,1.7236-5.58253,5.847,5.847,0,0,0-.84357-4.41342,9.87432,9.87432,0,0,0-2.56662-1.79532,9.84016,9.84016,0,0,1-3.19711-3.23716c-.56683-.93537-.97277-1.95813-1.48231-2.92591-1.84113-3.49694-5.42248-6.34018-9.37239-6.2112-1.89711.062-3.70544.78328-5.575,1.11111-6.27492,1.10027-13.09516-2.2196-18.916.36953a17.62685,17.62685,0,0,0-3.958,2.63927q-2.45768,2.02746-4.72537,4.27155a9.78009,9.78009,0,0,0-2.88,4.19184c-.79073,2.9694,1.0896,6.2874-.10685,9.11779a13.74019,13.74019,0,0,1-1.45921,2.29187c-1.32076,1.93672.11432,9.4977-.03193,11.83733a4.38911,4.38911,0,0,0,.81013,3.24281c.95456,1.064,2.56063,1.15715,3.99,1.17433l2.62772.0316a3.433,3.433,0,0,0,1.16577-.12008,3.54406,3.54406,0,0,0,1.32236-1.01944c2.18527-2.30255,2.65882-9.8328,5.83316-9.80534a2.3263,2.3263,0,0,1,1.36913.35467c.57532.42162.74463,1.19624,1.1521,1.78166a3.35837,3.35837,0,0,0,3.89891.91035,8.73672,8.73672,0,0,0,3.31976-2.68215,13.092,13.092,0,0,1,3.1039-2.96495c1.69137-.98657,3.60334-1.41636,5.2494-2.5312,1.37593-.93189,2.159-2.28387,3.39372-3.31307a2.95519,2.95519,0,0,1,3.59828-.20177C465.00049,527.62406,465.08623,529.29,465.97383,531.06013Z" transform="translate(-56 -106.01882)" fill="#2f2e41"/><path d="M419.21005,566.72007a32.23647,32.23647,0,0,1,14.1033,1.13272,7.46533,7.46533,0,0,1,3.93032,2.33193,7.1343,7.1343,0,0,1,1.12024,2.94363,23.79328,23.79328,0,0,1-1.70657,14.33622,1.88441,1.88441,0,0,0-.23621,1.53276,2.692,2.692,0,0,0,.78761.78042,2.78634,2.78634,0,0,1-.16856,4.16673c-.3774.2755-.87273.51515-.94655.97655-.08047.50292.3921.8972.75988,1.24954a4.49275,4.49275,0,0,1,1.25506,4.1295,9.04939,9.04939,0,0,0-.40615,1.83023,5.86431,5.86431,0,0,0,.66042,2.1758,9.515,9.515,0,0,1,.60967,4.80958,5.26925,5.26925,0,0,0-.05561,2.35265,5.33652,5.33652,0,0,0,.89376,1.41276c1.45481,1.96244,1.774,5.24439-.33629,6.47494a4.87533,4.87533,0,0,1,2.60043,5.02988c1.26-.67314,2.78779.18736,3.83738,1.15637s2.12224,2.15394,3.549,2.22522c.99463.04969,2.04271-.46635,2.95041-.05667,1.38014.62289,1.333,2.86081,2.69043,3.53166,1.1907.58843,2.84855-.37185,3.86324.48515.35321.29832.533.75978.874,1.072.77017.70515,1.97273.40525,3.01612.36373a7.10173,7.10173,0,0,1,6.02228,3.67687,18.024,18.024,0,0,1,2.06484,7.05233,9.47411,9.47411,0,0,1-.07774,4.05342,3.48137,3.48137,0,0,1-2.85508,2.5726c-12.42116.804-24.67771-2.17425-36.77153-5.11893-3.55229-.86494-7.16547-1.87734-10.128-4.01986-2.69172-1.94667-4.671-4.69989-6.6015-7.40325-3.55932-4.9843-7.14122-10.00722-9.68853-15.57708-3.27848-7.16863-4.74013-15.011-6.17361-22.76231a21.1295,21.1295,0,0,1-.52031-6.35,17.90572,17.90572,0,0,1,2.79566-6.96245,74.34761,74.34761,0,0,1,5.65879-7.97832A20.69478,20.69478,0,0,1,419.21005,566.72007Z" transform="translate(-56 -106.01882)" opacity="0.1"/><path d="M420.029,565.90113a32.23652,32.23652,0,0,1,14.10331,1.13272,7.46527,7.46527,0,0,1,3.93031,2.33193,7.13425,7.13425,0,0,1,1.12024,2.94363,23.79328,23.79328,0,0,1-1.70656,14.33622,1.88442,1.88442,0,0,0-.23622,1.53276,2.69192,2.69192,0,0,0,.78761.78041,2.78634,2.78634,0,0,1-.16855,4.16673c-.37741.27551-.87274.51516-.94656.97656-.08047.50292.3921.89719.75988,1.24953a4.49274,4.49274,0,0,1,1.25506,4.12951,9.04909,9.04909,0,0,0-.40615,1.83023,5.8645,5.8645,0,0,0,.66042,2.1758,9.515,9.515,0,0,1,.60967,4.80958,5.26936,5.26936,0,0,0-.05561,2.35264,5.33645,5.33645,0,0,0,.89377,1.41277c1.4548,1.96244,1.774,5.24439-.33629,6.47494a4.87531,4.87531,0,0,1,2.60042,5.02987c1.26-.67313,2.78779.18737,3.83738,1.15637s2.12225,2.154,3.549,2.22522c.99463.0497,2.04271-.46634,2.95042-.05667,1.38013.6229,1.333,2.86082,2.69042,3.53167,1.1907.58843,2.84855-.37185,3.86324.48514.35321.29832.533.75979.874,1.072.77017.70515,1.97273.40525,3.01612.36373a7.10172,7.10172,0,0,1,6.02228,3.67687,18.02388,18.02388,0,0,1,2.06485,7.05233,9.47412,9.47412,0,0,1-.07775,4.05342,3.48138,3.48138,0,0,1-2.85508,2.5726c-12.42116.804-24.67771-2.17425-36.77153-5.11893-3.55229-.86494-7.16547-1.87734-10.128-4.01986-2.69172-1.94667-4.671-4.6999-6.60149-7.40325-3.55933-4.9843-7.14123-10.00723-9.68854-15.57709-3.27848-7.16862-4.74013-15.011-6.17361-22.7623a21.12949,21.12949,0,0,1-.5203-6.35,17.9057,17.9057,0,0,1,2.79565-6.96245,74.34761,74.34761,0,0,1,5.65879-7.97832A20.69483,20.69483,0,0,1,420.029,565.90113Z" transform="translate(-56 -106.01882)" fill="#f33535"/></svg>