<svg id="Layer_1" data-name="Layer 1" xmlns="http://www.w3.org/2000/svg" viewBox="0 0 286 50" width="160px" height="35px"><defs><style>.cls-1{fill:#4285f4;}.cls-2{fill:#fcfcfc;}</style></defs><title>Artboard 1</title><rect class="cls-1" width="286" height="50" rx="20.8" ry="20.8"/><g id="BASE"><path class="cls-2" d="M46,25,27.61,11.2,32.21,25Z"/><polygon class="cls-2" points="45.97 25 32.21 25 27.61 38.8 45.97 25"/><polygon class="cls-2" points="24.16 13.5 19.57 11.21 23.21 25 27.61 25 24.16 13.5"/><polygon class="cls-2" points="27.61 25 23.21 25 19.57 38.8 24.16 36.5 27.61 25"/></g><path class="cls-2" d="M55.53,15.93h5.39a5.19,5.19,0,0,1,2.45.6,4.72,4.72,0,0,1,1.81,1.68,4.53,4.53,0,0,1,.68,2.44,4.46,4.46,0,0,1-.5,2.07A4.52,4.52,0,0,1,64,24.32a4.77,4.77,0,0,1-1.95.87l0,.07,4.49,6.52v.09H64.26l-4.34-6.5H57.4v6.5H55.53Zm5.28,7.68a3.17,3.17,0,0,0,1.54-.38,2.94,2.94,0,0,0,1.16-1.05,2.83,2.83,0,0,0,.06-2.93,3.07,3.07,0,0,0-1.06-1.09,2.93,2.93,0,0,0-1.57-.43H57.4v5.88Z"/><path class="cls-2" d="M69,31a4.86,4.86,0,0,1-1.08-3.36V20.52h1.89v6.86a3.33,3.33,0,0,0,.73,2.38,2.65,2.65,0,0,0,2,.75A3,3,0,0,0,74.2,30a3.47,3.47,0,0,0,1.16-1.33,3.9,3.9,0,0,0,.41-1.74V20.52h1.89V31.87h-1.8V30.23h-.09a3.79,3.79,0,0,1-1.49,1.42,4.34,4.34,0,0,1-2.18.58A4,4,0,0,1,69,31Z"/><path class="cls-2" d="M80.47,20.52h1.8v1.67h.09a3.77,3.77,0,0,1,1.49-1.44A4.33,4.33,0,0,1,86,20.16a4,4,0,0,1,3.13,1.19,4.66,4.66,0,0,1,1.08,3.24v7.28H88.35v-7a3,3,0,0,0-.76-2.29,2.86,2.86,0,0,0-2.07-.71,2.8,2.8,0,0,0-1.64.51,3.49,3.49,0,0,0-1.12,1.34,4,4,0,0,0-.4,1.75v6.39H80.47Z"/><path class="cls-2" d="M100.35,31.43a5.66,5.66,0,0,1-2.08-2.18,6.6,6.6,0,0,1,0-6.11A5.66,5.66,0,0,1,100.35,21a6,6,0,0,1,6,0,5.59,5.59,0,0,1,2.08,2.18,6.6,6.6,0,0,1,0,6.11,5.59,5.59,0,0,1-2.08,2.18,6,6,0,0,1-6,0Zm5-1.44a3.81,3.81,0,0,0,1.45-1.5,5.06,5.06,0,0,0,0-4.59,3.83,3.83,0,0,0-3.39-2,3.87,3.87,0,0,0-3.42,2,5.06,5.06,0,0,0,0,4.59,3.87,3.87,0,0,0,3.42,2A3.79,3.79,0,0,0,105.3,30Z"/><path class="cls-2" d="M111.17,20.52H113v1.67h.09a3.8,3.8,0,0,1,1.5-1.44,4.33,4.33,0,0,1,2.18-.59,4,4,0,0,1,3.13,1.19A4.66,4.66,0,0,1,121,24.59v7.28h-1.9v-7a3,3,0,0,0-.75-2.29,2.89,2.89,0,0,0-2.07-.71,2.77,2.77,0,0,0-1.64.51,3.52,3.52,0,0,0-1.13,1.34,4.11,4.11,0,0,0-.4,1.75v6.39h-1.89Z"/><path class="cls-2" d="M132.1,31.14A8.31,8.31,0,0,1,128,23.9a8.21,8.21,0,0,1,1.12-4.23,8.2,8.2,0,0,1,7.14-4.1,8.67,8.67,0,0,1,3.31.63A6.59,6.59,0,0,1,142.1,18l-1.36,1.36a4.78,4.78,0,0,0-1.94-1.44,6.29,6.29,0,0,0-2.54-.5,6.43,6.43,0,0,0-3.15.81,6.17,6.17,0,0,0-2.33,2.29,6.55,6.55,0,0,0-.88,3.42,6.55,6.55,0,0,0,.88,3.42,6.08,6.08,0,0,0,2.35,2.29,6.79,6.79,0,0,0,5.82.31,5.93,5.93,0,0,0,1.86-1.32,5.14,5.14,0,0,0,.93-1.5,6.63,6.63,0,0,0,.45-2h-5.9V23.39H144a7.07,7.07,0,0,1,.11,1.16,9,9,0,0,1-.47,2.86,6.34,6.34,0,0,1-1.49,2.44,7.59,7.59,0,0,1-5.86,2.38A8.11,8.11,0,0,1,132.1,31.14Z"/><path class="cls-2" d="M148.6,31.43a5.66,5.66,0,0,1-2.08-2.18,6.6,6.6,0,0,1,0-6.11A5.66,5.66,0,0,1,148.6,21a6,6,0,0,1,6,0,5.59,5.59,0,0,1,2.08,2.18,6.6,6.6,0,0,1,0,6.11,5.59,5.59,0,0,1-2.08,2.18,6,6,0,0,1-6,0Zm5-1.44a3.81,3.81,0,0,0,1.45-1.5,5.06,5.06,0,0,0,0-4.59,3.83,3.83,0,0,0-3.39-2,3.87,3.87,0,0,0-3.42,2,5.06,5.06,0,0,0,0,4.59,3.87,3.87,0,0,0,3.42,2A3.79,3.79,0,0,0,153.55,30Z"/><path class="cls-2" d="M161.87,31.43a5.66,5.66,0,0,1-2.08-2.18,6.6,6.6,0,0,1,0-6.11A5.66,5.66,0,0,1,161.87,21a6,6,0,0,1,6,0A5.59,5.59,0,0,1,170,23.14a6.6,6.6,0,0,1,0,6.11,5.59,5.59,0,0,1-2.08,2.18,6,6,0,0,1-6,0ZM166.82,30a3.81,3.81,0,0,0,1.45-1.5,5.06,5.06,0,0,0,0-4.59,3.83,3.83,0,0,0-3.39-2,3.87,3.87,0,0,0-3.42,2,5.06,5.06,0,0,0,0,4.59,3.87,3.87,0,0,0,3.42,2A3.79,3.79,0,0,0,166.82,30Z"/><path class="cls-2" d="M174.6,36.1a4.5,4.5,0,0,1-1.75-2.25l1.71-.73a3.38,3.38,0,0,0,1.26,1.59,3.54,3.54,0,0,0,2.08.61,3.65,3.65,0,0,0,2.73-1,3.84,3.84,0,0,0,1-2.8V30.27h-.09a4.14,4.14,0,0,1-1.57,1.41,4.75,4.75,0,0,1-2.31.55,4.93,4.93,0,0,1-2.68-.77A5.36,5.36,0,0,1,173,29.33a7.14,7.14,0,0,1,0-6.25A5.29,5.29,0,0,1,175,20.93a4.93,4.93,0,0,1,2.68-.77,4.75,4.75,0,0,1,2.31.55,4.11,4.11,0,0,1,1.57,1.43h.09V20.52h1.8V31.43a5.47,5.47,0,0,1-1.51,4.17,5.55,5.55,0,0,1-4,1.44A5.46,5.46,0,0,1,174.6,36.1ZM179.76,30a3.68,3.68,0,0,0,1.34-1.49,5.61,5.61,0,0,0,0-4.63,3.68,3.68,0,0,0-1.34-1.49,3.6,3.6,0,0,0-1.86-.5,3.49,3.49,0,0,0-1.87.52,3.7,3.7,0,0,0-1.35,1.49,5.59,5.59,0,0,0,0,4.62A3.66,3.66,0,0,0,176,30a3.57,3.57,0,0,0,1.87.5A3.43,3.43,0,0,0,179.76,30Z"/><path class="cls-2" d="M186.21,15.93h1.89V31.87h-1.89Z"/><path class="cls-2" d="M192.93,31.45a5.41,5.41,0,0,1-2-2.15,6.4,6.4,0,0,1-.73-3.08,6.81,6.81,0,0,1,.68-3A5.42,5.42,0,0,1,192.8,21a5.11,5.11,0,0,1,2.89-.83,5.44,5.44,0,0,1,2.9.75A4.94,4.94,0,0,1,200.47,23a6.56,6.56,0,0,1,.65,3,2.4,2.4,0,0,1-.06.58h-9a4.44,4.44,0,0,0,.62,2.18,3.62,3.62,0,0,0,1.41,1.34,3.79,3.79,0,0,0,1.79.44,3.71,3.71,0,0,0,3.37-2l1.6.78a5.74,5.74,0,0,1-2,2.18,6,6,0,0,1-6,0ZM199.12,25a3.62,3.62,0,0,0-.4-1.42,3,3,0,0,0-1.12-1.2,3.52,3.52,0,0,0-1.93-.49,3.21,3.21,0,0,0-2.26.85A4.09,4.09,0,0,0,192.2,25Z"/><path class="cls-2" d="M211.7,31.14a7.92,7.92,0,0,1-3-3,8.86,8.86,0,0,1,0-8.48,7.83,7.83,0,0,1,3-3,8.27,8.27,0,0,1,4.21-1.1,7.52,7.52,0,0,1,5.83,2.61l-1.36,1.31a5.91,5.91,0,0,0-2-1.6,5.75,5.75,0,0,0-2.48-.51,6.44,6.44,0,0,0-3.19.81,6.09,6.09,0,0,0-2.3,2.29,6.73,6.73,0,0,0-.86,3.42,6.73,6.73,0,0,0,.86,3.42,6,6,0,0,0,2.3,2.29,6.34,6.34,0,0,0,3.19.82A6.24,6.24,0,0,0,220.83,28l1.38,1.34a8,8,0,0,1-2.74,2.08,8.65,8.65,0,0,1-7.77-.32Z"/><path class="cls-2" d="M224.33,15.93h1.89V31.87h-1.89Z"/><path class="cls-2" d="M231.14,31.43a5.59,5.59,0,0,1-2.08-2.18,6.6,6.6,0,0,1,0-6.11A5.59,5.59,0,0,1,231.14,21a6,6,0,0,1,6,0,5.59,5.59,0,0,1,2.08,2.18,6.6,6.6,0,0,1,0,6.11,5.59,5.59,0,0,1-2.08,2.18,6,6,0,0,1-6,0Zm5-1.44a3.88,3.88,0,0,0,1.45-1.5,5.06,5.06,0,0,0,0-4.59,3.88,3.88,0,0,0-1.45-1.5,3.79,3.79,0,0,0-1.94-.52,3.87,3.87,0,0,0-3.42,2,5.06,5.06,0,0,0,0,4.59,3.87,3.87,0,0,0,3.42,2A3.79,3.79,0,0,0,236.09,30Z"/><path class="cls-2" d="M243.06,31A4.86,4.86,0,0,1,242,27.67V20.52h1.9v6.86a3.33,3.33,0,0,0,.73,2.38,2.65,2.65,0,0,0,2,.75A3,3,0,0,0,248.3,30a3.45,3.45,0,0,0,1.15-1.33,3.78,3.78,0,0,0,.42-1.74V20.52h1.89V31.87H250V30.23h-.08a3.82,3.82,0,0,1-1.5,1.42,4.32,4.32,0,0,1-2.18.58A4,4,0,0,1,243.06,31Z"/><path class="cls-2" d="M256.51,31.45a5.56,5.56,0,0,1-1.95-2.15,7.12,7.12,0,0,1,0-6.2,5.52,5.52,0,0,1,1.95-2.16,5,5,0,0,1,2.75-.78,4.62,4.62,0,0,1,2.34.59,4.32,4.32,0,0,1,1.56,1.46h.09l-.09-1.58v-4.7h1.89V31.87h-1.8V30.2h-.09a4.36,4.36,0,0,1-1.56,1.44,4.62,4.62,0,0,1-2.34.59A5,5,0,0,1,256.51,31.45ZM261.34,30a4,4,0,0,0,1.38-1.51,5.15,5.15,0,0,0,0-4.55,4,4,0,0,0-1.38-1.51,3.49,3.49,0,0,0-3.7,0,3.85,3.85,0,0,0-1.4,1.53,4.74,4.74,0,0,0-.52,2.26,4.79,4.79,0,0,0,.52,2.26,3.89,3.89,0,0,0,1.4,1.52,3.49,3.49,0,0,0,3.7,0Z"/></svg>