<?xml version="1.0" encoding="UTF-8"?>
<svg width="249px" height="313px" viewBox="0 0 249 313" version="1.1" xmlns="http://www.w3.org/2000/svg" xmlns:xlink="http://www.w3.org/1999/xlink">
    <title>graphjin-logo</title>
    <g id="Page-1" stroke="none" stroke-width="1" fill="none" fill-rule="evenodd">
        <g id="graphjin-logo" transform="translate(0.000000, -1.000000)" fill="#444AA9" fill-rule="nonzero">
            <path d="M248.6,130.276 C247.4,127.076 244.6,125.076 241,125.076 L155,125.076 L225.8,13.476 C227.8,10.276 227.4,5.876 224.2,3.076 C221,0.276 217,0.276 213.8,2.676 L3.4,174.676 C0.6,176.676 -0.2,180.276 1,183.476 C2.2,186.676 5,188.676 8.6,188.676 L91.8,188.676 L21,300.676 C19,303.876 19.4,308.276 22.6,311.076 C24.2,312.276 26.2,313.076 27.8,313.076 C29.4,313.076 31.4,312.676 33,311.476 L246.2,139.476 C248.6,137.076 249.8,133.476 248.6,130.276 Z M61,267.876 L113.8,185.076 C115.4,182.676 115.4,179.476 114.2,177.076 C113,174.676 110.2,173.076 107,173.076 L31.4,173.076 L185.8,46.676 L133.8,128.676 C132.2,131.076 132.2,134.276 133.4,136.676 C134.6,139.076 137.4,140.676 140.6,140.676 L218.2,140.676 L61,267.876 Z" id="Shape"></path>
        </g>
    </g>
</svg>