<?xml version="1.0" encoding="UTF-8"?>
<svg width="378px" height="314px" viewBox="0 0 378 314" version="1.1" xmlns="http://www.w3.org/2000/svg" xmlns:xlink="http://www.w3.org/1999/xlink">
    <title>battery-technology-svgrepo-com</title>
    <g id="Page-1" stroke="none" stroke-width="1" fill="none" fill-rule="evenodd">
        <g id="battery-technology-svgrepo-com" fill="#444AA9" fill-rule="nonzero">
            <path d="M234,269.076 L210,269.076 C196.8,269.076 186,258.276 186,245.076 L186,69.076 C186,55.876 196.8,45.076 210,45.076 L370,45.076 C374.4,45.076 378,41.476 378,37.076 C378,32.676 374.4,29.076 370,29.076 L210,29.076 C188,29.076 170,47.076 170,69.076 L170,245.076 C170,267.076 188,285.076 210,285.076 L234,285.076 C238.4,285.076 242,281.476 242,277.076 C242,272.676 238.4,269.076 234,269.076 Z" id="Path" transform="translate(274.000000, 157.076000) scale(-1, -1) translate(-274.000000, -157.076000) "></path>
            <path d="M64,269.076 L40,269.076 C26.8,269.076 16,258.276 16,245.076 L16,69.076 C16,55.876 26.8,45.076 40,45.076 L200,45.076 C204.4,45.076 208,41.476 208,37.076 C208,32.676 204.4,29.076 200,29.076 L40,29.076 C18,29.076 0,47.076 0,69.076 L0,245.076 C0,267.076 18,285.076 40,285.076 L64,285.076 C68.4,285.076 72,281.476 72,277.076 C72,272.676 68.4,269.076 64,269.076 Z" id="Path"></path>
            <path d="M196,269.076 L184,269.076 C179.6,269.076 176,272.676 176,277.076 C176,281.476 179.6,285.076 184,285.076 L196,285.076 C200.4,285.076 204,281.476 204,277.076 C204,272.676 200.4,269.076 196,269.076 Z" id="Path"></path>
            <path d="M315.6,130.276 C314.4,127.076 311.6,125.076 308,125.076 L222,125.076 L292.8,13.476 C294.8,10.276 294.4,5.876 291.2,3.076 C288,0.276 284,0.276 280.8,2.676 L70.4,174.676 C67.6,176.676 66.8,180.276 68,183.476 C69.2,186.676 72,188.676 75.6,188.676 L158.8,188.676 L88,300.676 C86,303.876 86.4,308.276 89.6,311.076 C91.2,312.276 93.2,313.076 94.8,313.076 C96.4,313.076 98.4,312.676 100,311.476 L313.2,139.476 C315.6,137.076 316.8,133.476 315.6,130.276 Z M128,267.876 L180.8,185.076 C182.4,182.676 182.4,179.476 181.2,177.076 C180,174.676 177.2,173.076 174,173.076 L98.4,173.076 L252.8,46.676 L200.8,128.676 C199.2,131.076 199.2,134.276 200.4,136.676 C201.6,139.076 204.4,140.676 207.6,140.676 L285.2,140.676 L128,267.876 Z" id="Shape"></path>
        </g>
    </g>
</svg>